# xmcd CD database file
#
# Track frame offsets:
#	150
#	11975
#	22795
#	35800
#	47380
#	59677
#	76382
#	87912
#	99715
#	112240
#	130050
#	143877
#	156440
#	166975
#	179327
#	193710
#	206997
#	218377
#	230390
#	250262
#	261927
#	277777
#
# Disc length: 3864 seconds
#
# Revision: 0
# Processed by: cddbd v1.4PL0 Copyright (c) Steve Scherf et al.
# Submitted via: CDex 1.50beta9
#
DISCID=3b0f1616
DTITLE=Various Artist - Blues and Soul Masters
DYEAR=1900
DGENRE=Blues
TTITLE0=Soul Man - Sam and Dave
TTITLE1=Respect - Aretha Franklin
TTITLE2=Green Onions - Booker T and The MG's
TTITLE3=I'd rather go blind - Etta James
TTITLE4=I'm in the mood - John Lee Hooker
TTITLE5=Take me to the river - Al Green
TTITLE6=Take a little piece of my heart - Erma Franklin
TTITLE7=In the Midnight Hour - Wilson Pickett
TTITLE8=Clean up Women - Betty Wright
TTITLE9=Mannish Boy - Muddy Waters
TTITLE10=Knock on Wood - Eddie Floyd
TTITLE11=( I'm ) A Road Runner - Jr. Walker and The All Stars
TTITLE12=Sweet Soul Music - Arthur Conley
TTITLE13=Everybody needs somebody to love Solomon Burke
TTITLE14=5-10-15 hours - Ruth Brown
TTITLE15=Memphis Soul Stew - King Curtis
TTITLE16=Walking the dog - Rufus Thomas
TTITLE17=Crying in the chapel - Mavis Staples
TTITLE18=Stormy Monday - Little Milton
TTITLE19=I put a spell on you - Nina Simone
TTITLE20=Stay with me - Lorraine Ellison
TTITLE21=( Sittin' on ) The Dock Of The Bay - Otis Redding
EXTD=
EXTT0=
EXTT1=
EXTT2=
EXTT3=
EXTT4=
EXTT5=
EXTT6=
EXTT7=
EXTT8=
EXTT9=
EXTT10=
EXTT11=
EXTT12=
EXTT13=
EXTT14=
EXTT15=
EXTT16=
EXTT17=
EXTT18=
EXTT19=
EXTT20=
EXTT21=
PLAYORDER=
